<?xml version="1.0" encoding="utf-8"?>
<svg xmlns="http://www.w3.org/2000/svg" viewBox="0 0 257.51 104.67"><defs><style>.cls-1{fill:#3e5370;}.cls-2{fill:#999d9f;}</style></defs><title>Element 1</title><g id="Ebene_2" data-name="Ebene 2"><g id="Ebene_1-2" data-name="Ebene 1"><path class="cls-1" d="M82.51,57.77c.26-.41.53-.81.78-1.22Q84.66,54.23,86,51.9c.1-.18.22-.34.34-.55a18,18,0,0,0,4.89,2.78,14.6,14.6,0,0,0,8.26.81,7.5,7.5,0,0,0,2.32-1,3.39,3.39,0,0,0,.4-5.48,7.76,7.76,0,0,0-2.09-1.29c-1.93-.8-3.89-1.52-5.86-2.24A23.31,23.31,0,0,1,88,41.57a10.68,10.68,0,0,1,2.24-18.18,18.77,18.77,0,0,1,9.26-1.56,22.79,22.79,0,0,1,11.09,3.73l.33.23L107.41,32c-1-.49-1.85-1-2.78-1.42a14.25,14.25,0,0,0-8.2-1.26,6.9,6.9,0,0,0-2.3.83A3.09,3.09,0,0,0,93.45,35a5.49,5.49,0,0,0,1.71,1.23c1.74.78,3.5,1.51,5.29,2.16a26.24,26.24,0,0,1,7.68,4A10,10,0,0,1,112,51.08c-.19,5-3.19,8.86-8.18,10.61a21.1,21.1,0,0,1-10.92.62,25.06,25.06,0,0,1-10.38-4.43Z"/><path class="cls-1" d="M141.43,41.54a9.78,9.78,0,0,1,5.88,7.34,10.35,10.35,0,0,1-8.19,12.57,17.76,17.76,0,0,1-3.78.45c-5.65.05-11.31,0-17,0H118V22.62l.56,0H133.9a14.22,14.22,0,0,1,7.44,1.8,9.85,9.85,0,0,1,4.74,9.89,9.75,9.75,0,0,1-4.34,7,1.88,1.88,0,0,0-.23.16s0,.06-.08.13M126.38,55.15a1.48,1.48,0,0,0,.24.05c2.53,0,5.06.06,7.58,0a4.89,4.89,0,0,0,4.67-6.11,4.77,4.77,0,0,0-4.79-3.87c-2.45,0-4.9,0-7.35,0a2.35,2.35,0,0,0-.35,0Zm0-25.8v9.2c1.95,0,3.85,0,5.76,0a13.47,13.47,0,0,0,1.56-.11,4.28,4.28,0,0,0,3.79-4.38,4.19,4.19,0,0,0-3.31-4.51,3.77,3.77,0,0,0-1-.19c-2.26,0-4.52,0-6.81,0"/><polygon class="cls-1" points="162.31 54.06 162.31 23.87 153.81 32.37 153.81 61.88 178.21 61.88 178.21 54.06 162.31 54.06"/><path class="cls-1" d="M89.08,1.84l-.19,0C77.24.69,65.27.08,53.27,0c-12,.08-24,.69-35.6,1.82l-.2,0L11.14,9H95.42Z"/><path class="cls-1" d="M82,67.83C73.92,79.5,64,88.61,53.19,94.2,31.49,82.93,14.05,58.1,6.52,27.71l0-.14L0,21.08l.22,1.5c5.55,38.23,25.66,69.67,52.49,82l.86,0,.1,0c13-6,24.83-16.84,34.13-31.32L88,73l-5.63-5.62Z"/><path class="cls-2" d="M118.64,71.19a.29.29,0,0,1,.29-.29h4.23a3.34,3.34,0,0,1,3.38,3.32,3.45,3.45,0,0,1-2.3,3.16l2.13,3.94a.29.29,0,0,1-.26.45H124.9a.28.28,0,0,1-.25-.14l-2.07-4.11h-2.34v4a.31.31,0,0,1-.3.29h-1a.29.29,0,0,1-.29-.29Zm4.39,5a1.93,1.93,0,0,0,1.9-1.93,1.9,1.9,0,0,0-1.9-1.84h-2.76v3.77Z"/><path class="cls-2" d="M130,71.19a.29.29,0,0,1,.29-.29h6.22a.29.29,0,0,1,.29.29v.87a.29.29,0,0,1-.29.3h-4.91v3.17h4.15a.3.3,0,0,1,.29.29v.87a.3.3,0,0,1-.29.3h-4.15v3.34h4.91a.29.29,0,0,1,.29.29v.86a.29.29,0,0,1-.29.29H130.3a.29.29,0,0,1-.29-.29Z"/><path class="cls-2" d="M145,70.74a5.39,5.39,0,0,1,3.76,1.45.28.28,0,0,1,0,.43l-.68.7c-.11.14-.25.14-.39,0a4.23,4.23,0,0,0-2.68-1,4,4,0,0,0,0,8.06,4.15,4.15,0,0,0,2.67-1,.29.29,0,0,1,.38,0l.71.7a.3.3,0,0,1,0,.42A5.3,5.3,0,0,1,145,81.93a5.6,5.6,0,1,1,0-11.19"/><path class="cls-2" d="M152,71.19a.31.31,0,0,1,.3-.29h1a.3.3,0,0,1,.3.29v4.34h5.68V71.19a.29.29,0,0,1,.3-.29h1a.31.31,0,0,1,.3.29V81.48a.31.31,0,0,1-.3.29h-1a.29.29,0,0,1-.3-.29V77h-5.68v4.49a.3.3,0,0,1-.3.29h-1a.31.31,0,0,1-.3-.29Z"/><path class="cls-2" d="M166.47,72.36h-2.53a.29.29,0,0,1-.29-.3v-.87a.29.29,0,0,1,.29-.29h6.68a.3.3,0,0,1,.3.29v.87a.3.3,0,0,1-.3.3h-2.53v9.12a.31.31,0,0,1-.3.29h-1a.31.31,0,0,1-.3-.29Z"/><path class="cls-2" d="M172.94,80.2c.14-.2.26-.43.4-.63a.35.35,0,0,1,.53-.13,4.54,4.54,0,0,0,2.49,1.07,1.56,1.56,0,0,0,1.75-1.44c0-.93-.81-1.52-2.34-2.16s-2.83-1.49-2.83-3.29c0-1.21.93-2.88,3.4-2.88a5.22,5.22,0,0,1,2.87.92.37.37,0,0,1,.1.53c-.13.18-.27.4-.39.59a.37.37,0,0,1-.54.15,4.85,4.85,0,0,0-2.1-.77c-1.31,0-1.76.82-1.76,1.39,0,.89.69,1.43,2,2,1.8.73,3.34,1.59,3.34,3.48,0,1.62-1.45,2.94-3.47,2.94A5.06,5.06,0,0,1,173,80.7a.32.32,0,0,1-.09-.5"/><path class="cls-2" d="M181.56,81.37l4.77-10.46a.39.39,0,0,1,.26-.17h.16a.35.35,0,0,1,.26.17l4.74,10.46a.27.27,0,0,1-.26.4h-1a.36.36,0,0,1-.36-.23l-1-2.13h-5.08c-.31.72-.64,1.41-1,2.13a.38.38,0,0,1-.36.23h-1a.27.27,0,0,1-.27-.4m7-3.29-1.91-4.26h-.08l-1.89,4.26Z"/><path class="cls-2" d="M194.35,71a.3.3,0,0,1,.29-.28H195l6.74,7.8h0V71.19a.29.29,0,0,1,.29-.29h1a.3.3,0,0,1,.29.29V81.65a.3.3,0,0,1-.29.28h-.41l-6.74-8h0v7.57a.3.3,0,0,1-.3.29h-1a.3.3,0,0,1-.29-.29Z"/><path class="cls-2" d="M206.39,71.27a.27.27,0,0,1,.28-.37h1a.32.32,0,0,1,.28.22l1.88,7.13h.06l2.53-7.33a.28.28,0,0,1,.27-.18H213a.27.27,0,0,1,.26.18l2.56,7.33h.07l1.84-7.13a.34.34,0,0,1,.28-.22h1a.27.27,0,0,1,.28.37l-2.93,10.44a.31.31,0,0,1-.28.22h-.25a.29.29,0,0,1-.26-.17L212.88,74h-.08l-2.68,7.72a.31.31,0,0,1-.27.17h-.24a.3.3,0,0,1-.28-.22Z"/><path class="cls-2" d="M220.53,81.37l4.77-10.46a.39.39,0,0,1,.26-.17h.16a.35.35,0,0,1,.26.17l4.74,10.46a.27.27,0,0,1-.26.4h-1a.36.36,0,0,1-.36-.23l-1-2.13h-5.08c-.31.72-.64,1.41-1,2.13a.39.39,0,0,1-.36.23h-1a.27.27,0,0,1-.26-.4m7-3.29-1.91-4.26h-.08l-1.9,4.26Z"/><path class="cls-2" d="M233.32,71.19a.29.29,0,0,1,.29-.29h1a.3.3,0,0,1,.29.29v9.14h4.21a.3.3,0,0,1,.3.29v.86a.3.3,0,0,1-.3.29h-5.53a.29.29,0,0,1-.29-.29Z"/><path class="cls-2" d="M243,72.36h-2.53a.3.3,0,0,1-.3-.3v-.87a.3.3,0,0,1,.3-.29h6.68a.29.29,0,0,1,.29.29v.87a.29.29,0,0,1-.29.3h-2.54v9.12a.3.3,0,0,1-.29.29h-1a.3.3,0,0,1-.29-.29Z"/><path class="cls-2" d="M249.41,80.2c.14-.2.27-.43.41-.63a.35.35,0,0,1,.53-.13,4.49,4.49,0,0,0,2.48,1.07,1.57,1.57,0,0,0,1.76-1.44c0-.93-.81-1.52-2.35-2.16s-2.83-1.49-2.83-3.29c0-1.21.94-2.88,3.4-2.88a5.27,5.27,0,0,1,2.88.92.37.37,0,0,1,.09.53l-.39.59a.36.36,0,0,1-.54.15,4.85,4.85,0,0,0-2.1-.77c-1.3,0-1.75.82-1.75,1.39,0,.89.68,1.43,2,2,1.8.73,3.34,1.59,3.34,3.48a3.17,3.17,0,0,1-3.46,2.94,5,5,0,0,1-3.34-1.23.33.33,0,0,1-.1-.5"/><path class="cls-2" d="M123.44,87.25a5.64,5.64,0,0,1,3.77,1.45.3.3,0,0,1,0,.43c-.24.25-.47.48-.7.73s-.25.13-.41,0a4.12,4.12,0,0,0-2.64-1.06,4,4,0,0,0,0,8.06,5.3,5.3,0,0,0,2.33-.53V94.58h-1.52a.28.28,0,0,1-.29-.28v-.9a.28.28,0,0,1,.29-.29h2.83a.3.3,0,0,1,.28.29c0,1.25,0,2.52,0,3.76a.39.39,0,0,1-.12.25,7.73,7.73,0,0,1-3.85,1,5.6,5.6,0,1,1,0-11.19"/><path class="cls-2" d="M130.63,87.7a.3.3,0,0,1,.3-.29h6.21a.3.3,0,0,1,.3.29v.87a.3.3,0,0,1-.3.3h-4.91V92h4.15a.3.3,0,0,1,.29.29v.87a.3.3,0,0,1-.29.3h-4.15v3.33h4.91a.3.3,0,0,1,.3.3V98a.3.3,0,0,1-.3.3h-6.21a.3.3,0,0,1-.3-.3Z"/><path class="cls-2" d="M139.86,96.71c.14-.2.27-.43.4-.64a.35.35,0,0,1,.53-.12A4.58,4.58,0,0,0,143.28,97,1.56,1.56,0,0,0,145,95.58c0-.93-.8-1.52-2.34-2.16s-2.83-1.49-2.83-3.29c0-1.22.93-2.88,3.4-2.88a5.22,5.22,0,0,1,2.87.92.37.37,0,0,1,.1.53c-.13.18-.27.4-.39.59a.36.36,0,0,1-.54.15,4.85,4.85,0,0,0-2.1-.77c-1.3,0-1.75.82-1.75,1.39,0,.89.68,1.43,2,2,1.8.73,3.34,1.58,3.34,3.48,0,1.62-1.45,2.94-3.47,2.94A5.06,5.06,0,0,1,140,97.21a.33.33,0,0,1-.09-.5"/><path class="cls-2" d="M149.68,87.7a.29.29,0,0,1,.29-.29h6.22a.29.29,0,0,1,.29.29v.87a.29.29,0,0,1-.29.3h-4.91V92h4.15a.3.3,0,0,1,.29.29v.87a.3.3,0,0,1-.29.3h-4.15v3.33h4.91a.29.29,0,0,1,.29.3V98a.29.29,0,0,1-.29.3H150a.29.29,0,0,1-.29-.3Z"/><path class="cls-2" d="M159.61,87.7a.29.29,0,0,1,.29-.29h1a.3.3,0,0,1,.29.29v9.13h4.21a.3.3,0,0,1,.3.3V98a.3.3,0,0,1-.3.3H159.9a.29.29,0,0,1-.29-.3Z"/><path class="cls-2" d="M168.14,87.7a.29.29,0,0,1,.29-.29h1a.3.3,0,0,1,.29.29v9.13H174a.3.3,0,0,1,.3.3V98a.3.3,0,0,1-.3.3h-5.53a.29.29,0,0,1-.29-.3Z"/><path class="cls-2" d="M176,96.71c.14-.2.26-.43.4-.64a.35.35,0,0,1,.53-.12A4.53,4.53,0,0,0,179.38,97a1.56,1.56,0,0,0,1.76-1.44c0-.93-.81-1.52-2.35-2.16S176,91.93,176,90.13c0-1.22.93-2.88,3.4-2.88a5.22,5.22,0,0,1,2.87.92.37.37,0,0,1,.1.53c-.13.18-.27.4-.39.59a.37.37,0,0,1-.55.15,4.74,4.74,0,0,0-2.09-.77c-1.31,0-1.76.82-1.76,1.39,0,.89.69,1.43,2,2,1.8.73,3.33,1.58,3.33,3.48,0,1.62-1.44,2.94-3.46,2.94a5.06,5.06,0,0,1-3.34-1.23c-.14-.13-.25-.23-.09-.5"/><path class="cls-2" d="M190.6,87.25a5.39,5.39,0,0,1,3.76,1.45.29.29,0,0,1,0,.43l-.69.7c-.11.14-.25.14-.39,0a4.18,4.18,0,0,0-2.68-1,4,4,0,0,0,0,8.06,4.15,4.15,0,0,0,2.67-1,.29.29,0,0,1,.38,0l.71.7a.3.3,0,0,1,0,.42,5.38,5.38,0,0,1-3.78,1.51,5.6,5.6,0,1,1,0-11.19"/><path class="cls-2" d="M197.38,87.7a.3.3,0,0,1,.29-.29h1a.29.29,0,0,1,.29.29V92h5.69V87.7a.29.29,0,0,1,.29-.29h1a.3.3,0,0,1,.29.29V98a.31.31,0,0,1-.29.3h-1a.29.29,0,0,1-.29-.3V93.5H199V98a.29.29,0,0,1-.29.3h-1a.31.31,0,0,1-.29-.3Z"/><path class="cls-2" d="M208.63,97.88l4.77-10.46a.35.35,0,0,1,.26-.17h.15a.38.38,0,0,1,.27.17l4.74,10.46a.27.27,0,0,1-.27.4h-1a.35.35,0,0,1-.35-.23l-1-2.13h-5.07c-.32.71-.64,1.41-1,2.13a.39.39,0,0,1-.36.23h-1a.27.27,0,0,1-.26-.4m7-3.3-1.91-4.25h-.07l-1.9,4.25Z"/><path class="cls-2" d="M221.15,87.7a.29.29,0,0,1,.3-.29h6.21a.29.29,0,0,1,.29.29v.87a.29.29,0,0,1-.29.3h-4.91v3.58h4.15a.31.31,0,0,1,.29.3v.85a.31.31,0,0,1-.29.3h-4.15V98a.31.31,0,0,1-.29.3h-1a.29.29,0,0,1-.3-.3Z"/><path class="cls-2" d="M232.21,88.87h-2.53a.3.3,0,0,1-.3-.3V87.7a.3.3,0,0,1,.3-.29h6.68a.29.29,0,0,1,.29.29v.87a.29.29,0,0,1-.29.3h-2.53V98a.31.31,0,0,1-.3.29h-1a.31.31,0,0,1-.3-.29Z"/><path class="cls-2" d="M241.9,88a.16.16,0,0,1,.14-.12h.12a.17.17,0,0,1,.14.09l1.62,4h0l1.62-4a.13.13,0,0,1,.13-.09h.12A.15.15,0,0,1,246,88l1,5.22a.13.13,0,0,1-.14.17h-.51a.17.17,0,0,1-.15-.1l-.57-3.48h0l-1.4,3.58a.14.14,0,0,1-.13.08h-.14a.16.16,0,0,1-.14-.08l-1.4-3.58h0l-.56,3.48a.15.15,0,0,1-.14.1h-.5c-.12,0-.17-.07-.15-.17Z"/><path class="cls-2" d="M248.14,88.14a.15.15,0,0,1,.15-.15H250a1.41,1.41,0,0,1,.81,2.67,1.41,1.41,0,0,1,1,1.27,1.54,1.54,0,0,1-1.69,1.49h-1.82a.15.15,0,0,1-.15-.14Zm2,4.57a.83.83,0,0,0,.84-.85.89.89,0,0,0-.95-.81h-1.07v1.66ZM250,90.35a.79.79,0,0,0,.8-.83.75.75,0,0,0-.8-.8h-1v1.63Z"/><path class="cls-2" d="M253.05,88.14a.15.15,0,0,1,.14-.15h.52a.15.15,0,0,1,.15.15V90.3h2.84V88.14a.15.15,0,0,1,.15-.15h.51a.15.15,0,0,1,.15.15v5.14a.15.15,0,0,1-.15.14h-.51a.15.15,0,0,1-.15-.14V91h-2.84v2.25a.15.15,0,0,1-.15.14h-.52a.15.15,0,0,1-.14-.14Z"/></g></g></svg>