<svg xmlns="http://www.w3.org/2000/svg" xmlns:xlink="http://www.w3.org/1999/xlink" viewBox="0 0 49.36 47.6"><defs><style>.cls-1{fill:none;}.cls-2{clip-path:url(#clip-path);}.cls-3{fill:#1a171b;}.cls-4{fill:#00519e;}</style><clipPath id="clip-path" transform="translate(0 0)"><rect class="cls-1" x="7.03" width="36.3" height="37.29"/></clipPath></defs><title>vid-cert</title><g id="Ebene_2" data-name="Ebene 2"><g id="Ebene_1-2" data-name="Ebene 1"><g class="cls-2"><path class="cls-3" d="M7,17.48h.21v2.29H7Z" transform="translate(0 0)"/><path class="cls-3" d="M7.92,17.48h.24L9.25,19.4V17.48h.21v2.29H9.22l-1.09-1.9v1.9H7.92Z" transform="translate(0 0)"/><path class="cls-3" d="M10.05,19.52l.09,0a.23.23,0,0,0,.11,0l.13,0h.17a1,1,0,0,0,.26,0,.5.5,0,0,0,.18-.1.33.33,0,0,0,.11-.15.48.48,0,0,0,0-.18.38.38,0,0,0,0-.16.26.26,0,0,0-.08-.13.74.74,0,0,0-.16-.11l-.26-.11-.21-.09a.57.57,0,0,1-.18-.12.48.48,0,0,1-.12-.16.54.54,0,0,1,0-.24.55.55,0,0,1,.19-.42.85.85,0,0,1,.54-.15h.14l.14,0,.11,0,.09,0s0,.07,0,.1l0,.09-.19,0a1,1,0,0,0-.24,0,.56.56,0,0,0-.38.1.37.37,0,0,0-.11.28.33.33,0,0,0,0,.15.35.35,0,0,0,.1.11l.15.09.18.07.25.12a.69.69,0,0,1,.2.13.59.59,0,0,1,.13.18.62.62,0,0,1,.05.25.65.65,0,0,1-.06.29.62.62,0,0,1-.17.22.71.71,0,0,1-.26.13,1.4,1.4,0,0,1-.66,0L10,19.72l0-.1,0-.1" transform="translate(0 0)"/><path class="cls-3" d="M12.71,19.81a.91.91,0,0,1-.41-.09.89.89,0,0,1-.3-.24,1.33,1.33,0,0,1-.17-.38,1.73,1.73,0,0,1-.06-.47,1.8,1.8,0,0,1,.06-.48,1.26,1.26,0,0,1,.17-.37.81.81,0,0,1,.3-.25.91.91,0,0,1,.41-.08.93.93,0,0,1,.42.08.71.71,0,0,1,.29.25,1.06,1.06,0,0,1,.18.37,1.8,1.8,0,0,1,.06.48,1.73,1.73,0,0,1-.06.47,1.11,1.11,0,0,1-.18.38.76.76,0,0,1-.29.24.93.93,0,0,1-.42.09m0-.2a.76.76,0,0,0,.32-.07.56.56,0,0,0,.22-.21.89.89,0,0,0,.14-.31,1.61,1.61,0,0,0,0-.39,1.64,1.64,0,0,0,0-.4.89.89,0,0,0-.14-.31.53.53,0,0,0-.22-.2.63.63,0,0,0-.32-.07.62.62,0,0,0-.31.07.56.56,0,0,0-.23.2.88.88,0,0,0-.13.31,1.64,1.64,0,0,0,0,.4A1.61,1.61,0,0,0,12,19a.88.88,0,0,0,.13.31.58.58,0,0,0,.23.21.74.74,0,0,0,.31.07" transform="translate(0 0)"/><path class="cls-3" d="M14.21,17.48h.22v2.09h1v.05a.11.11,0,0,1,0,.05.13.13,0,0,1,0,.06v0h-1.2Z" transform="translate(0 0)"/><path class="cls-3" d="M15.6,17.48h.25l.64,2.08.63-2.08h.25l-.75,2.29h-.27Z" transform="translate(0 0)"/><path class="cls-3" d="M17.82,17.48H19s0,0,0,.05v.11s0,0,0,0H18v.78h.8a.06.06,0,0,1,0,0v.11a.07.07,0,0,1,0,.05H18v.91h1a.11.11,0,0,0,0,.05v.1a.11.11,0,0,0,0,.05H17.82Z" transform="translate(0 0)"/><path class="cls-3" d="M19.57,17.48h.23l1.1,1.92V17.48h.21v2.29h-.24l-1.09-1.9v1.9h-.21Z" transform="translate(0 0)"/><path class="cls-3" d="M21.51,19.75l1.29-2.07H21.69v-.2h1.45l0,0-1.3,2.06h1.2v.2H21.52Z" transform="translate(0 0)"/><path class="cls-3" d="M23.36,17.48h.25l.64,2.08.63-2.08h.24l-.75,2.29h-.26Z" transform="translate(0 0)"/><path class="cls-3" d="M25.57,17.48H26.8v.2h-1v.78h.81v0s0,0,0,.06a.43.43,0,0,0,0,.05v.05h-.81v.91h1a.07.07,0,0,1,0,.05v.1a.07.07,0,0,1,0,.05H25.57Z" transform="translate(0 0)"/><path class="cls-3" d="M27.32,17.47h.45a1.55,1.55,0,0,1,.31,0,.85.85,0,0,1,.26.11.55.55,0,0,1,.19.21.67.67,0,0,1,.07.33.59.59,0,0,1,0,.23.94.94,0,0,1-.12.18,1.07,1.07,0,0,1-.16.14l-.2.1h0l.73,1h-.26l-.8-1.06h0l.07,0a1,1,0,0,0,.21-.07.81.81,0,0,0,.18-.12.47.47,0,0,0,.13-.15.46.46,0,0,0,.05-.21.42.42,0,0,0-.16-.37.59.59,0,0,0-.41-.13h-.26v2.12h-.22Z" transform="translate(0 0)"/><path class="cls-3" d="M29,17.48h.25l.45,2.05.52-2.05h.27L31,19.53l.45-2.05h.24l-.55,2.29h-.29l-.51-2-.51,2h-.29Z" transform="translate(0 0)"/><path class="cls-3" d="M32.68,17.48h.26l.77,2.29h-.24l-.19-.58h-.94l-.18.58h-.24ZM33.22,19l-.41-1.28L32.4,19Z" transform="translate(0 0)"/><path class="cls-3" d="M34.12,17.48h.22v2.09h1v.2h-1.2Z" transform="translate(0 0)"/><path class="cls-3" d="M36.09,17.68h-.62v-.2h1.45v.05a.09.09,0,0,1,0,0,.11.11,0,0,1,0,.05v.05h-.61v2.09h-.22Z" transform="translate(0 0)"/><path class="cls-3" d="M37.31,17.48h.22v1.38a1.58,1.58,0,0,0,0,.34.62.62,0,0,0,.11.23.37.37,0,0,0,.17.13.62.62,0,0,0,.25,0,.51.51,0,0,0,.42-.17.91.91,0,0,0,.14-.57V17.48h.22v1.41a1,1,0,0,1-.19.69.87.87,0,0,1-1.18,0,1,1,0,0,1-.19-.69Z" transform="translate(0 0)"/><path class="cls-3" d="M39.52,17.48h.24l1.09,1.92V17.48h.21v2.29h-.24l-1.09-1.9v1.9h-.21Z" transform="translate(0 0)"/><path class="cls-3" d="M43.11,18.59h.22V19.7l-.13.05a.41.41,0,0,1-.16,0l-.17,0h-.18a1.16,1.16,0,0,1-.42-.07.91.91,0,0,1-.34-.22,1.06,1.06,0,0,1-.23-.37,1.5,1.5,0,0,1-.08-.5,1.6,1.6,0,0,1,.08-.51,1.19,1.19,0,0,1,.22-.38,1,1,0,0,1,.34-.23.91.91,0,0,1,.41-.08l.34,0,.21.06s0,.07,0,.09l0,.1-.19,0a1.12,1.12,0,0,0-.29,0,.77.77,0,0,0-.34.07.63.63,0,0,0-.26.2.88.88,0,0,0-.17.32,1.33,1.33,0,0,0-.06.42,1.35,1.35,0,0,0,.06.43.9.9,0,0,0,.18.29.8.8,0,0,0,.27.18,1,1,0,0,0,.33.06h.24l.17,0Z" transform="translate(0 0)"/><path class="cls-3" d="M18,29.45a3.85,3.85,0,0,1,.33,1.14,5,5,0,0,1-.91.24,5.94,5.94,0,0,1-.87.06,3.64,3.64,0,0,1-1.45-.27,2.93,2.93,0,0,1-1-.75,3,3,0,0,1-.64-1.14,4.72,4.72,0,0,1-.22-1.44,4.54,4.54,0,0,1,.23-1.45,3.39,3.39,0,0,1,.64-1.15,2.87,2.87,0,0,1,1.05-.76,3.46,3.46,0,0,1,1.4-.27,5.71,5.71,0,0,1,.86.06,3.44,3.44,0,0,1,.85.24,2.3,2.3,0,0,1-.11.57c-.07.18-.14.37-.22.56a4.06,4.06,0,0,0-.6-.17,3.7,3.7,0,0,0-.62-.05,1.78,1.78,0,0,0-1.44.61,2.83,2.83,0,0,0-.5,1.81q0,2.37,2,2.37a3.14,3.14,0,0,0,.64-.05,3.7,3.7,0,0,0,.61-.16" transform="translate(0 0)"/><path class="cls-3" d="M20.07,23.77h4a3.05,3.05,0,0,1,.06.6A3,3,0,0,1,24,25H21.49V26.5h2a3.21,3.21,0,0,1,.06.6,3.26,3.26,0,0,1-.06.62h-2v1.84h2.62a3.69,3.69,0,0,1,0,1.21h-4Z" transform="translate(0 0)"/><path class="cls-3" d="M26.08,23.77l.8-.08c.25,0,.53,0,.83,0a6.23,6.23,0,0,1,1.06.09,2.86,2.86,0,0,1,.94.35,1.9,1.9,0,0,1,.93,1.75,2,2,0,0,1-.1.68,1.92,1.92,0,0,1-.24.52,2.12,2.12,0,0,1-.33.39l-.33.26-.17.1,1.71,3-.41,0-.44,0a4.4,4.4,0,0,1-.73-.06l-1.83-3.25.24-.12.33-.17a1.84,1.84,0,0,0,.37-.27,1.72,1.72,0,0,0,.31-.39,1.13,1.13,0,0,0,.12-.54,1.07,1.07,0,0,0-.35-.9,1.37,1.37,0,0,0-.9-.29,2.38,2.38,0,0,0-.39,0v5.91l-.35,0h-.69l-.38,0Z" transform="translate(0 0)"/><path class="cls-3" d="M33.9,25H32.16a3,3,0,0,1-.06-.61,3.05,3.05,0,0,1,.06-.6h4.91a3.05,3.05,0,0,1,.06.6,3,3,0,0,1-.06.61H35.33v5.79l-.35,0h-.7l-.38,0Z" transform="translate(0 0)"/><path class="cls-4" d="M42.72,14.09a.6.6,0,0,1-.6-.61V1.21H8.24V13.45a.61.61,0,0,1-.61.61.6.6,0,0,1-.6-.61V0h36.3V13.48a.61.61,0,0,1-.61.61" transform="translate(0 0)"/><path class="cls-4" d="M43.33,37.29H7V23.81a.61.61,0,1,1,1.21,0V36.08H42.12V23.84a.6.6,0,0,1,.6-.61.61.61,0,0,1,.61.61Z" transform="translate(0 0)"/><path class="cls-3" d="M31.07,7.17a3.07,3.07,0,0,1,.34,0h.34a2.82,2.82,0,0,1,.83.12,1.71,1.71,0,0,1,.7.41,2.08,2.08,0,0,1,.48.8,3.78,3.78,0,0,1,.18,1.26A3.76,3.76,0,0,1,33.76,11a2,2,0,0,1-.48.78,1.62,1.62,0,0,1-.72.41,3.56,3.56,0,0,1-.89.11h-.36l-.24,0Zm-1.54,6.31c.29,0,.59.07.89.09s.63,0,1,0a4.58,4.58,0,0,0,3.12-.93,3.73,3.73,0,0,0,1-2.92,3.9,3.9,0,0,0-1-3,4.17,4.17,0,0,0-3-1c-.39,0-.75,0-1.07,0l-.92.09Zm-5.14,0a4.11,4.11,0,0,0,.78.07,4.06,4.06,0,0,0,.76-.07V5.94a5,5,0,0,0-1.54,0Zm-7.07,0a3.71,3.71,0,0,0,.44,0l.4,0,.44,0a3,3,0,0,0,.42,0l2.44-7.54-.41,0h-.77l-.41,0-1.66,6L16.56,5.94a6.15,6.15,0,0,0-.84-.06,3.1,3.1,0,0,0-.41,0l-.41,0Z" transform="translate(0 0)"/></g><path class="cls-3" d="M.37,45.16a1,1,0,0,1,.75-1.51h.93a.09.09,0,0,1,.1.1v.1a.09.09,0,0,1-.06.09L1.8,44a.77.77,0,0,1,.24.62.9.9,0,0,1-.92.93.85.85,0,0,1-.52-.14.41.41,0,0,0-.24.33.27.27,0,0,0,.3.27h.79c.46,0,.82.23.82.7a1,1,0,0,1-1.13.89c-.74,0-1.06-.39-1.06-.75a.63.63,0,0,1,.32-.52h0A.53.53,0,0,1,0,45.8.8.8,0,0,1,.37,45.16Zm.76,2.09c.36,0,.74-.21.74-.52,0-.08,0-.36-.42-.36H.84s-.37.1-.37.42S.76,47.25,1.13,47.25Zm.55-2.65A.55.55,0,0,0,1.13,44a.62.62,0,0,0,0,1.23A.56.56,0,0,0,1.68,44.6Z" transform="translate(0 0)"/><path class="cls-3" d="M2.62,42.43a.25.25,0,0,1,.26-.26.26.26,0,0,1,.26.26.26.26,0,0,1-.26.26A.26.26,0,0,1,2.62,42.43Zm.07,1.38a.11.11,0,0,1,.11-.11H3a.11.11,0,0,1,.1.11v2a.11.11,0,0,1-.1.1H2.8a.11.11,0,0,1-.11-.1Z" transform="translate(0 0)"/><path class="cls-3" d="M3.81,42.16a.11.11,0,0,1,.11-.1h.17a.11.11,0,0,1,.1.1V45.8a.11.11,0,0,1-.1.1H3.92a.11.11,0,0,1-.11-.1Z" transform="translate(0 0)"/><path class="cls-3" d="M5.07,44H4.79a.1.1,0,0,1-.1-.1v-.12a.1.1,0,0,1,.1-.11h.28v-.61a.11.11,0,0,1,.11-.1h.17a.1.1,0,0,1,.1.1v.62h.64a.1.1,0,0,1,.1.11v.12a.1.1,0,0,1-.1.1H5.45v1.29c0,.22,0,.26.18.26a1,1,0,0,0,.4-.12c.08,0,.11,0,.13,0l.09.14c0,.07,0,.1,0,.14a1.47,1.47,0,0,1-.63.19c-.44,0-.51-.27-.51-.61Z" transform="translate(0 0)"/><path class="cls-3" d="M8.1,44H7.77a.11.11,0,0,1-.11-.1v-.12a.11.11,0,0,1,.11-.11H8.1v-.77A.82.82,0,0,1,8.94,42a.87.87,0,0,1,.61.23.11.11,0,0,1,0,.12l-.09.14c0,.06-.09,0-.14,0a.78.78,0,0,0-.4-.16c-.26,0-.46.17-.46.59v.77h.64a.1.1,0,0,1,.1.11v.12a.1.1,0,0,1-.1.1H8.48V45.8a.11.11,0,0,1-.1.1H8.21a.11.11,0,0,1-.11-.1Z" transform="translate(0 0)"/><path class="cls-3" d="M9.61,43.81a.11.11,0,0,1,.1-.11h.18a.11.11,0,0,1,.1.11V45c0,.41.19.62.5.62a.85.85,0,0,0,.65-.32V43.81a.11.11,0,0,1,.11-.11h.17a.11.11,0,0,1,.1.11v2a.11.11,0,0,1-.1.1h-.11c-.06,0-.08,0-.1-.09l0-.15a1,1,0,0,1-.71.3c-.64,0-.85-.42-.85-1Zm.18-1.38a.26.26,0,0,1,.26-.26.25.25,0,0,1,.26.26.26.26,0,0,1-.26.26A.26.26,0,0,1,9.79,42.43Zm1.06,0a.26.26,0,0,1,.26-.26.25.25,0,0,1,.26.26.26.26,0,0,1-.26.26A.26.26,0,0,1,10.85,42.43Z" transform="translate(0 0)"/><path class="cls-3" d="M12.25,43.81a.11.11,0,0,1,.11-.11h.1a.11.11,0,0,1,.1.08l0,.16a.81.81,0,0,1,.66-.29c.16,0,.44,0,.38.18l-.06.19a.09.09,0,0,1-.13,0,.48.48,0,0,0-.22,0,.7.7,0,0,0-.6.31V45.8a.11.11,0,0,1-.1.1h-.17a.11.11,0,0,1-.11-.1Z" transform="translate(0 0)"/><path class="cls-3" d="M14.54,42.2a.1.1,0,0,1,.1-.14h.22a.09.09,0,0,1,.09.06l1.37,3.07h0l1.37-3.07a.1.1,0,0,1,.09-.06H18a.09.09,0,0,1,.09.14l-1.67,3.7a.1.1,0,0,1-.09.06h-.06a.13.13,0,0,1-.09-.06Z" transform="translate(0 0)"/><path class="cls-3" d="M18.67,42.16a.11.11,0,0,1,.1-.1H19a.11.11,0,0,1,.11.1V45.8a.11.11,0,0,1-.11.1h-.22a.11.11,0,0,1-.1-.1Z" transform="translate(0 0)"/><path class="cls-3" d="M20.17,42.16a.1.1,0,0,1,.1-.1H21.5a1.92,1.92,0,1,1,0,3.84H20.27a.1.1,0,0,1-.1-.1Zm1.24,3.36a1.55,1.55,0,1,0,0-3.09h-.83v3.09Z" transform="translate(0 0)"/><path class="cls-3" d="M24.12,44.59v-.1a.1.1,0,0,1,.11-.1h1.15a.09.09,0,0,1,.1.1v.1a.09.09,0,0,1-.1.1H24.23A.1.1,0,0,1,24.12,44.59Z" transform="translate(0 0)"/><path class="cls-3" d="M26.81,42.08A.09.09,0,0,1,26.9,42H27a.12.12,0,0,1,.1.06l1.08,3h0l1.07-3a.12.12,0,0,1,.1-.06h.08a.1.1,0,0,1,.1.08l.71,3.69a.09.09,0,0,1-.1.13h-.22a.12.12,0,0,1-.1-.08L29.35,43h0l-1,2.91a.11.11,0,0,1-.09.06h-.1A.11.11,0,0,1,28,45.9L27,43h0l-.48,2.83a.1.1,0,0,1-.09.08H26.2c-.09,0-.12,0-.1-.13Z" transform="translate(0 0)"/><path class="cls-3" d="M30.73,42.43a.27.27,0,0,1,.53,0,.27.27,0,0,1-.53,0Zm.08,1.38a.11.11,0,0,1,.11-.11h.17a.11.11,0,0,1,.1.11v2a.11.11,0,0,1-.1.1h-.17a.11.11,0,0,1-.11-.1Z" transform="translate(0 0)"/><path class="cls-3" d="M32.06,44h-.28a.1.1,0,0,1-.1-.1v-.12a.1.1,0,0,1,.1-.11h.28v-.61a.11.11,0,0,1,.11-.1h.17a.1.1,0,0,1,.1.1v.62h.64a.1.1,0,0,1,.1.11v.12a.1.1,0,0,1-.1.1h-.64v1.29c0,.22.06.26.18.26a1.1,1.1,0,0,0,.41-.12c.08,0,.1,0,.13,0l.08.14c0,.07,0,.1,0,.14a1.42,1.42,0,0,1-.63.19c-.44,0-.51-.27-.51-.61Z" transform="translate(0 0)"/><path class="cls-3" d="M33.85,45.16a1,1,0,0,1,.75-1.51h.93a.09.09,0,0,1,.1.1v.1a.09.09,0,0,1-.06.09l-.3.06a.76.76,0,0,1,.25.62.9.9,0,0,1-.92.93.85.85,0,0,1-.52-.14s-.25.11-.25.33a.27.27,0,0,0,.31.27h.79c.46,0,.82.23.82.7a1,1,0,0,1-1.13.89c-.74,0-1.06-.39-1.06-.75a.61.61,0,0,1,.32-.52h0a.53.53,0,0,1-.4-.52A.8.8,0,0,1,33.85,45.16Zm.76,2.09c.36,0,.74-.21.74-.52,0-.08,0-.36-.42-.36h-.61s-.37.1-.37.42S34.24,47.25,34.61,47.25Zm.54-2.65A.55.55,0,0,0,34.6,44a.62.62,0,0,0,0,1.23A.56.56,0,0,0,35.15,44.6Z" transform="translate(0 0)"/><path class="cls-3" d="M36.18,42.16a.11.11,0,0,1,.1-.1h.17a.11.11,0,0,1,.11.1V45.8a.11.11,0,0,1-.11.1h-.17a.11.11,0,0,1-.1-.1Z" transform="translate(0 0)"/><path class="cls-3" d="M37.22,42.43a.26.26,0,1,1,.52,0,.26.26,0,1,1-.52,0Zm.07,1.38a.11.11,0,0,1,.11-.11h.17a.1.1,0,0,1,.1.11v2a.1.1,0,0,1-.1.1H37.4a.11.11,0,0,1-.11-.1Z" transform="translate(0 0)"/><path class="cls-3" d="M39.32,43.65a1,1,0,0,1,1,1s0,.11,0,.15a.11.11,0,0,1-.1.1H38.63a.77.77,0,0,0,.73.71,1.05,1.05,0,0,0,.55-.17c.07,0,.11-.07.15,0l.09.13s.06.08,0,.14a1.32,1.32,0,0,1-.81.26,1.16,1.16,0,0,1,0-2.31Zm.62.94a.64.64,0,0,0-.62-.61.69.69,0,0,0-.69.61Z" transform="translate(0 0)"/><path class="cls-3" d="M41.76,43.65a1.17,1.17,0,0,1,.59.14V42.16a.11.11,0,0,1,.11-.1h.17a.11.11,0,0,1,.1.1V45.8a.11.11,0,0,1-.1.1h-.12s-.08,0-.09-.09l0-.15a1,1,0,0,1-.68.3,1.09,1.09,0,0,1-1-1.16A1.05,1.05,0,0,1,41.76,43.65Zm0,2a.76.76,0,0,0,.6-.36v-1.1a1.2,1.2,0,0,0-.54-.13.7.7,0,0,0-.72.78A.73.73,0,0,0,41.75,45.61Z" transform="translate(0 0)"/><path class="cls-3" d="M44.39,43.65a1,1,0,0,1,1,1,.76.76,0,0,1,0,.15.1.1,0,0,1-.1.1H43.69a.78.78,0,0,0,.74.71,1,1,0,0,0,.54-.17c.08,0,.11-.07.16,0a.6.6,0,0,0,.09.13s.06.08,0,.14a1.35,1.35,0,0,1-.81.26,1.16,1.16,0,0,1,0-2.31Zm.61.94a.63.63,0,0,0-.61-.61.68.68,0,0,0-.69.61Z" transform="translate(0 0)"/><path class="cls-3" d="M45.93,43.81A.11.11,0,0,1,46,43.7h.1a.1.1,0,0,1,.1.08l0,.16a.81.81,0,0,1,.66-.29c.17,0,.44,0,.38.18l-.06.19a.09.09,0,0,1-.13,0,.45.45,0,0,0-.22,0,.72.72,0,0,0-.6.31V45.8a.11.11,0,0,1-.1.1H46a.11.11,0,0,1-.11-.1Z" transform="translate(0 0)"/><path class="cls-3" d="M48.52,43.52v-.45l-.37.26a.1.1,0,0,1-.14,0l0-.06a.11.11,0,0,1,0-.15l.41-.25L48,42.58a.1.1,0,0,1,0-.14.25.25,0,0,0,0-.07.11.11,0,0,1,.14,0l.38.27v-.46a.1.1,0,0,1,.1-.09h.08a.1.1,0,0,1,.1.09v.46l.37-.28a.11.11,0,0,1,.14,0l0,.06a.11.11,0,0,1,0,.15l-.42.27.43.27a.1.1,0,0,1,0,.14l0,.06a.11.11,0,0,1-.15,0l-.37-.27v.45a.11.11,0,0,1-.1.1h-.08A.11.11,0,0,1,48.52,43.52Z" transform="translate(0 0)"/></g></g></svg>