<?xml version="1.0" encoding="UTF-8"?>
<svg xmlns="http://www.w3.org/2000/svg" viewBox="0 0 392.1 201.32">
  <defs>
    <style>.cls-1{fill:#fff;}</style>
  </defs>
  <g id="Ebene_2" data-name="Ebene 2">
    <g id="Ebene_1-2" data-name="Ebene 1">
      <path class="cls-1" d="M171.34,3.54l-.38,0C148.56,1.32,125.52.14,102.47,0,79.42.14,56.38,1.32,34,3.5l-.37,0L21.42,17.25H183.53Z"></path>
      <path class="cls-1" d="M157.8,130.46c-15.63,22.44-34.8,40-55.49,50.72C60.56,159.5,27,111.74,12.55,53.29L12.48,53,0,40.54l.42,2.89c10.67,73.53,49.36,134,101,157.8l1.65.09.19-.09c25.06-11.56,47.75-32.4,65.63-60.24l.43-.66-10.83-10.82Z"></path>
      <path class="cls-1" d="M272.63,103.46a9.31,9.31,0,0,0,2.82-7.1,9,9,0,0,0-2.82-6.93,10.63,10.63,0,0,0-7.49-2.61H251.28v19.3h13.64a10.83,10.83,0,0,0,7.71-2.66M251.28,74.18h11.53q4.77,0,7.32-2.44a8.75,8.75,0,0,0,2.55-6.65A7.9,7.9,0,0,0,270,58.77a10.73,10.73,0,0,0-7.26-2.33H251.28ZM288.7,87a20.36,20.36,0,0,1,3.16,11.32,19.15,19.15,0,0,1-11.36,18.07A28.57,28.57,0,0,1,268.13,119h-33V43.57H266A28.38,28.38,0,0,1,278.12,46a19.08,19.08,0,0,1,8.14,7,18.69,18.69,0,0,1,2.94,10.42,18.69,18.69,0,0,1-2.43,9.6A19.72,19.72,0,0,1,280,79.84a18.68,18.68,0,0,1,8.7,7.2"></path>
      <polygon class="cls-1" points="320.26 103.9 320.26 43.98 303.85 60.39 303.85 118.98 350.76 118.98 350.76 103.9 320.26 103.9"></polygon>
      <path class="cls-1" d="M217.62,82.78q-6-5.61-17.13-9.16A52.53,52.53,0,0,1,190,69.08a6.77,6.77,0,0,1-3.61-6,5.65,5.65,0,0,1,3-5,14.5,14.5,0,0,1,7.66-1.83,29.74,29.74,0,0,1,8.65,1.27,39.37,39.37,0,0,1,9.09,4.27l6.77-12.09a47.53,47.53,0,0,0-12.37-5.87A45,45,0,0,0,196.38,42,33.69,33.69,0,0,0,183,44.63a22.49,22.49,0,0,0-9.66,7.54,19.53,19.53,0,0,0-3.54,11.69,19.39,19.39,0,0,0,5.82,14.26q5.82,5.82,16.36,9.15A55.38,55.38,0,0,1,203.31,92q3.83,2.34,3.83,6.21a6.43,6.43,0,0,1-3.44,5.83,16.63,16.63,0,0,1-8.65,2.05,31.64,31.64,0,0,1-10.87-1.94,34.37,34.37,0,0,1-8.71-4.78q-3.14,6.63-6.6,12.91a47.52,47.52,0,0,0,11.82,5.84,48.54,48.54,0,0,0,15,2.38,34.73,34.73,0,0,0,14.3-2.82,23.75,23.75,0,0,0,10-8,20.87,20.87,0,0,0,3.66-12.31q0-9-6-14.58"></path>
      <path class="cls-1" d="M373.09,158V147.37h6.66c3.5,0,5.85,2.3,5.85,5.37s-2.21,5.27-6,5.27Zm10.63,4.07c4.7-1.3,7.57-4.88,7.57-9.44,0-5.8-4.6-10.15-11.06-10.15H367.44v32.57h5.65V162.7H378l7.62,12.36h6.46v-.15Zm-38-10.68c.76,2.15,1.43,3.83,2.2,5.6l3.54,7.72H340l3.54-7.72c.77-1.82,1.44-3.49,2.21-5.6m.86-9.1h-1.72L329.5,175v.1h6l2.63-5.9h15.23l2.64,5.9h6v-.15Zm-15.38.19H307.13v5.21h9.2v27.36H322V147.7h9.25Zm-43.83,28.07c-6.8,0-11.16-5.27-11.16-11.83,0-6.76,4.36-11.74,11.16-11.74s11.21,5,11.21,11.74c0,6.56-4.36,11.83-11.21,11.83m0,5.12c10.06,0,17-7.42,17-17,0-9.78-6.9-16.86-17-16.86s-16.95,7.08-16.95,16.86c0,9.53,7,17,16.95,17m-30-33.19v17.62c0,1.35,0,2.78.09,4.36-1.05-1.24-2.15-2.39-3.21-3.49l-17-18.68h-2.16v32.76h5.6V156.67c0-1.15-.09-2.35-.19-3.55.91,1,1.92,2.06,2.73,2.92l17.58,19.21H263V142.49Z"></path>
    </g>
  </g>
</svg>
