<?xml version="1.0" standalone="no"?>
<!DOCTYPE svg PUBLIC "-//W3C//DTD SVG 20010904//EN"
 "http://www.w3.org/TR/2001/REC-SVG-20010904/DTD/svg10.dtd">
<svg version="1.0" xmlns="http://www.w3.org/2000/svg"
 width="1331.000000pt" height="1331.000000pt" viewBox="0 0 1331.000000 1331.000000"
 preserveAspectRatio="xMidYMid meet">
<metadata>
Created by potrace 1.14, written by Peter Selinger 2001-2017
</metadata>
<g transform="translate(0.000000,1331.000000) scale(0.100000,-0.100000)"
fill="#000000" stroke="none">
<path d="M3450 11716 c-118 -67 -402 -229 -630 -358 -228 -130 -431 -245 -450
-256 -19 -12 -51 -29 -70 -40 -19 -11 -179 -101 -355 -202 -176 -100 -340
-194 -365 -208 -25 -13 -74 -42 -110 -62 -36 -20 -85 -49 -110 -62 -25 -14
-225 -128 -445 -254 -220 -125 -428 -243 -463 -262 -35 -19 -66 -42 -70 -52
-5 -14 -8 -1129 -3 -1161 1 -3 322 -6 714 -7 391 0 730 -1 752 -1 l41 -1 0
-1677 c1 -923 4 -1730 7 -1793 22 -389 120 -782 259 -1040 43 -79 119 -199
140 -221 7 -8 25 -30 40 -50 47 -63 164 -175 254 -242 368 -277 947 -391 1479
-292 17 3 38 8 47 11 9 3 25 7 35 9 138 29 349 126 501 232 104 72 274 234
350 333 235 307 390 724 437 1175 2 28 7 75 11 105 3 30 6 819 6 1753 1 1556
2 1697 17 1698 9 0 346 1 749 1 487 1 735 4 739 11 10 17 7 1157 -3 1167 -8 8
-322 189 -602 346 -23 13 -61 35 -85 48 -23 13 -82 47 -130 75 -49 28 -90 51
-92 51 -2 0 -39 21 -82 46 -43 26 -112 66 -153 89 -41 23 -145 82 -230 130
-85 48 -168 96 -185 105 -16 9 -127 72 -245 140 -118 68 -235 134 -260 148
-25 14 -121 69 -215 122 -93 53 -190 108 -215 122 -25 14 -209 118 -409 233
-200 114 -369 209 -375 211 -6 2 -108 -52 -226 -120z"/>
<path d="M6959 8790 c-1 -3 -3 -815 -4 -1805 -2 -990 -6 -1822 -9 -1850 -3
-27 -8 -86 -11 -130 -3 -44 -8 -96 -10 -115 -3 -19 -7 -54 -10 -77 -96 -787
-347 -1425 -753 -1918 -157 -191 -382 -391 -592 -527 -164 -106 -420 -229
-585 -281 -90 -28 -190 -57 -210 -61 -123 -26 -218 -45 -255 -51 -107 -15
-173 -23 -212 -24 -16 -1 -28 -5 -28 -9 0 -6 4156 -10 4181 -3 3 0 5 452 5
1002 -1 662 2 1003 9 1005 6 3 487 6 1070 8 583 2 1076 6 1095 9 19 3 81 13
136 21 56 9 130 23 165 31 35 9 73 18 84 20 79 17 295 96 408 149 534 251 944
692 1150 1236 74 195 109 338 144 580 20 139 23 559 5 695 -7 50 -14 110 -17
135 -3 25 -10 68 -15 95 -6 28 -12 59 -14 70 -53 274 -183 598 -329 822 -328
500 -852 834 -1472 937 -111 19 -147 23 -250 32 -91 8 -3674 12 -3676 4z
m3591 -1522 c36 -9 74 -18 85 -21 200 -50 384 -173 497 -332 106 -149 158
-320 163 -540 5 -154 -4 -216 -49 -348 -110 -322 -384 -554 -758 -640 -91 -21
-115 -21 -1055 -24 -919 -4 -963 -3 -964 14 -1 24 -1 1873 0 1896 1 17 43 18
1009 14 869 -3 1016 -6 1072 -19z"/>
<path d="M0 8175 c0 -8 7 -15 16 -15 14 0 14 3 4 15 -7 8 -14 15 -16 15 -2 0
-4 -7 -4 -15z"/>
</g>
</svg>
