<?xml version="1.0" encoding="UTF-8"?> <!-- Generator: Adobe Illustrator 17.0.0, SVG Export Plug-In . SVG Version: 6.00 Build 0) --> <svg xmlns="http://www.w3.org/2000/svg" xmlns:xlink="http://www.w3.org/1999/xlink" id="Layer_1" x="0px" y="0px" width="89px" height="89px" viewBox="0 0 89 89" xml:space="preserve"> <g> <path fill="#ef4324" d="M6.783,48.988c0-11.584,5.309-22.238,14.566-29.23l-1.205-1.596C10.383,25.535,4.783,36.771,4.783,48.988 c0,15.787,9.449,29.83,24.07,35.777l0.754-1.854C15.742,77.273,6.783,63.957,6.783,48.988z"></path> <path fill="#ef4324" d="M67.293,17.967l-1.191,1.605c9.277,6.885,14.816,17.881,14.815,29.416c0,15.033-9.012,28.373-22.958,33.982 l0.746,1.855c14.708-5.916,24.212-19.982,24.212-35.838C82.918,36.822,77.077,25.227,67.293,17.967z"></path> <polygon fill="#ef4324" points="70.594,58.857 43.665,85.193 32.247,73.889 30.841,75.311 43.657,88 71.992,60.287 "></polygon> <path fill="#ef4324" d="M20,51v2h8h11h11h10h9v-2h-9V17.738L43.977,9.207L28,17.738V51H20z M41,51V39h7v12H41z M30,18.939 l13.978-7.467L58,18.941V51h-8V37H39v14h-9V18.939z"></path> </g> </svg> 