<?xml version="1.0" encoding="UTF-8"?> <!-- Generator: Adobe Illustrator 17.0.0, SVG Export Plug-In . SVG Version: 6.00 Build 0) --> <svg xmlns="http://www.w3.org/2000/svg" xmlns:xlink="http://www.w3.org/1999/xlink" id="Layer_1" x="0px" y="0px" width="89px" height="89px" viewBox="0 0 89 89" xml:space="preserve"> <g> <path fill="#ef4324" d="M74.559,23.503l-1.564,1.246c5.2,6.535,7.948,14.41,7.948,22.779c0,20.186-16.422,36.609-36.608,36.609 S7.727,67.713,7.727,47.528c0-8.369,2.749-16.244,7.949-22.777l-1.564-1.246c-5.485,6.891-8.385,15.197-8.385,24.023 c0,21.289,17.32,38.609,38.608,38.609s38.608-17.32,38.608-38.609C82.942,38.702,80.044,30.396,74.559,23.503z"></path> <path fill="#ef4324" d="M66,14H23v44h43V14z M42.892,26.886L64,34.911v13.011L38.508,38.23L42.892,26.886z M64,32.771L43.613,25.02 L47.1,16H64V32.771z M25,16h19.955L29.496,56H25V16z M31.64,56l6.147-15.904l26.145,9.939L64,49.855V56H31.64z"></path> </g> </svg> 