<?xml version="1.0" encoding="UTF-8"?> <!-- Generator: Adobe Illustrator 17.0.0, SVG Export Plug-In . SVG Version: 6.00 Build 0) --> <svg xmlns="http://www.w3.org/2000/svg" xmlns:xlink="http://www.w3.org/1999/xlink" id="Layer_1" x="0px" y="0px" width="89px" height="89px" viewBox="0 0 89 89" xml:space="preserve"> <path fill="#ef4324" d="M44.177,86.082c-21.288,0-38.608-17.32-38.608-38.607c0-14.621,8.104-27.818,21.148-34.443l0.905,1.783 C15.253,21.098,7.568,33.611,7.568,47.475c0,20.186,16.422,36.607,36.608,36.607S80.784,67.66,80.784,47.475 c0-13.84-7.665-26.344-20.005-32.635l0.908-1.782C74.7,19.692,82.784,32.879,82.784,47.475 C82.785,68.762,65.465,86.082,44.177,86.082z"></path> <rect x="33.766" y="50.805" transform="matrix(-0.4284 -0.9036 0.9036 -0.4284 31.274 123.3935)" fill="#ef4324" width="41.8" height="2"></rect> <rect x="32.465" y="31.092" transform="matrix(-0.9048 -0.4258 0.4258 -0.9048 41.64 113.1336)" fill="#ef4324" width="2" height="41.64"></rect> <rect x="43" y="34" fill="#ef4324" width="1.812" height="33"></rect> <path fill="#ef4324" d="M44.018,15h-0.004c-1.643,0-2.984-1.337-2.988-2.98c-0.002-1.649,1.336-2.991,2.983-2.994 c1.648,0,2.989,1.338,2.992,2.982c0.002,0.798-0.308,1.548-0.872,2.114C45.565,14.688,44.816,14.998,44.018,15z M44.013,10.738 c-0.705,0.001-1.275,0.574-1.274,1.277c0.001,0.7,0.574,1.271,1.275,1.271h0.001c0.34,0,0.661-0.134,0.9-0.375 c0.24-0.241,0.372-0.561,0.372-0.901C45.285,11.31,44.714,10.738,44.013,10.738z"></path> <path fill="#ef4324" d="M34,34v-6h20v6H34z M36,30v2h16v-2H36z"></path> <path fill="#ef4324" d="M49.881,3.068L38,3v21h12L49.881,3.068z M40,22V5h8v17H40z"></path> </svg> 