<?xml version="1.0" encoding="UTF-8"?> <!-- Generator: Adobe Illustrator 17.0.0, SVG Export Plug-In . SVG Version: 6.00 Build 0) --> <svg xmlns="http://www.w3.org/2000/svg" xmlns:xlink="http://www.w3.org/1999/xlink" id="Layer_1" x="0px" y="0px" width="89px" height="89px" viewBox="0 0 89 89" xml:space="preserve"> <g> <path fill="#ef4324" d="M80.878,35.488l-1.9,0.623c1.207,3.674,1.818,7.519,1.818,11.428c0,20.186-16.422,36.609-36.606,36.609 c-20.187,0-36.61-16.424-36.61-36.609c0-3.907,0.613-7.752,1.82-11.428l-1.9-0.623c-1.273,3.877-1.92,7.932-1.92,12.051 c0,21.289,17.32,38.609,38.61,38.609c21.287,0,38.606-17.32,38.606-38.609C82.796,43.418,82.15,39.363,80.878,35.488z"></path> <path fill="#ef4324" d="M29.434,61.703c4.473,3.098,9.712,4.736,15.15,4.736c5.457,0,10.713-1.652,15.199-4.775l-1.143-1.641 c-4.149,2.889-9.011,4.416-14.057,4.416c-5.03,0-9.875-1.516-14.012-4.381L29.434,61.703z"></path> <path fill="#ef4324" d="M33.023,56.416c3.412,2.377,7.41,3.633,11.561,3.633c4.168,0,8.184-1.27,11.61-3.67l-1.146-1.639 c-3.09,2.164-6.709,3.309-10.464,3.309c-3.74,0-7.342-1.133-10.418-3.275L33.023,56.416z"></path> <path fill="#ef4324" d="M52.507,50.938l-1.16-1.629c-1.992,1.418-4.332,2.168-6.763,2.168c-2.414,0-4.737-0.738-6.72-2.135 l-1.151,1.635c2.32,1.635,5.042,2.5,7.871,2.5C47.434,53.477,50.173,52.598,52.507,50.938z"></path> <path fill="#ef4324" d="M15,30h13v-0.079h0.37l5.111,2.041h0.252L31,39v8h2v-8l2.873-7.038h2.871l2.051,4.986l7.674-0.025 l2.04-4.961h2.454L56,39v8h2v-8l-2.885-7.038h0.657l5.11-2.041H61V30h13v-4h6v-2h-6v-2h-2v2h-6v2h6v2H61.843l-11.102-4.906H38.554 L27.421,28H17v-2h6v-2h-6v-2h-2v2H9v2h6V30z M38.937,24.94h11.381l8.275,3.741l-3.306,1.475l-6.191-0.016l-2.044,4.97h-4.851 l-2.028-4.933l-6.207-0.053l-3.306-1.443L38.937,24.94z"></path> </g> </svg> 