<svg width="216" height="239" viewBox="0 0 216 239" fill="none" xmlns="http://www.w3.org/2000/svg">
<path d="M215.063 18.738C130.388 -5.9094 83.5078 -6.58035 0.936646 18.738C0.936646 203.505 32.8394 223.319 109.177 239C179.916 221.697 215.063 203.505 215.063 18.738Z" fill="#bfcc33"/>
<path fill-rule="evenodd" clip-rule="evenodd" d="M20.0802 36.2947C20.252 113.476 27.1718 155.41 41.4163 179.716C55.3816 203.545 76.7353 210.957 108.935 217.598C138.789 210.282 159.717 202.899 173.803 179.176C188.137 155.036 195.728 113.433 195.919 36.3379C161.135 26.3984 134.057 21.3724 107.312 21.3039C80.5866 21.2354 53.9578 26.1174 20.0802 36.2947ZM107.333 13.3039C135.876 13.377 164.52 18.8986 201.037 29.4862L203.923 30.323V33.328C203.923 112.315 196.435 156.731 180.682 183.261C164.633 210.289 140.374 218.172 109.957 225.583L109.087 225.795L108.209 225.616C75.356 218.894 50.5037 211.044 34.5143 183.761C18.859 157.048 12.0769 112.264 12.0769 33.328V30.3672L14.9085 29.5024C50.567 18.6117 78.7752 13.2308 107.333 13.3039Z" fill="white"/>
<path d="M142.463 89.375H137.764V74.4688C137.764 57.1195 124.409 43 108 43C91.5909 43 78.2365 57.1195 78.2365 74.4688V89.375H73.537C68.3479 89.375 64.1379 93.8262 64.1379 99.3125V139.062C64.1379 144.549 68.3479 149 73.537 149H142.463C147.652 149 151.862 144.549 151.862 139.062V99.3125C151.862 93.8262 147.652 89.375 142.463 89.375ZM122.099 89.375H93.9015V74.4688C93.9015 66.2496 100.226 59.5625 108 59.5625C115.774 59.5625 122.099 66.2496 122.099 74.4688V89.375Z" fill="white"/>
<path d="M101.553 133.366L88.4854 121.02C87.7003 120.278 87.7003 119.076 88.4854 118.334L91.3284 115.648C92.1134 114.906 93.3864 114.906 94.1715 115.648L102.974 123.965L121.829 106.151C122.614 105.409 123.887 105.409 124.672 106.151L127.515 108.837C128.3 109.579 128.3 110.782 127.515 111.523L104.396 133.366C103.611 134.108 102.338 134.108 101.553 133.366V133.366Z" fill="#bfcc33"/>
<path d="M79.8518 168.205V186.795H76.0004V178.788H67.8514V186.795H64V168.205H67.8514V176.097H76.0004V168.205H79.8518Z" fill="white"/>
<path d="M99.6298 171.305H94.2226V186.795H90.384V171.305H84.9768V168.205H99.6298V171.305Z" fill="white"/>
<path d="M117.828 171.305H112.421V186.795H108.583V171.305H103.175V168.205H117.828V171.305Z" fill="white"/>
<path d="M129.179 177.455C130.378 177.455 131.253 177.165 131.806 176.584C132.367 176.003 132.648 175.209 132.648 174.201C132.648 173.74 132.575 173.321 132.431 172.945C132.295 172.561 132.082 172.236 131.793 171.972C131.513 171.698 131.156 171.489 130.722 171.344C130.288 171.199 129.774 171.126 129.179 171.126H126.756V177.455H129.179ZM129.179 168.205C130.446 168.205 131.538 168.354 132.456 168.653C133.383 168.952 134.144 169.371 134.739 169.909C135.334 170.439 135.772 171.071 136.053 171.805C136.342 172.54 136.486 173.338 136.486 174.201C136.486 175.115 136.337 175.952 136.04 176.712C135.742 177.472 135.292 178.126 134.688 178.672C134.085 179.219 133.324 179.646 132.405 179.953C131.487 180.252 130.412 180.402 129.179 180.402H126.756V186.795H122.93V168.205H129.179Z" fill="white"/>
<path d="M151.75 171.767C151.631 171.963 151.508 172.108 151.38 172.202C151.261 172.288 151.104 172.33 150.909 172.33C150.721 172.33 150.517 172.266 150.296 172.138C150.084 172.002 149.833 171.856 149.544 171.703C149.255 171.549 148.923 171.408 148.549 171.28C148.175 171.143 147.737 171.075 147.236 171.075C146.352 171.075 145.688 171.276 145.246 171.677C144.804 172.07 144.583 172.587 144.583 173.227C144.583 173.637 144.702 173.979 144.94 174.252C145.187 174.517 145.506 174.748 145.897 174.944C146.296 175.14 146.747 175.316 147.248 175.469C147.75 175.623 148.264 175.794 148.792 175.982C149.319 176.161 149.833 176.375 150.335 176.622C150.836 176.87 151.283 177.182 151.674 177.558C152.073 177.933 152.392 178.395 152.63 178.941C152.877 179.479 153 180.137 153 180.914C153 181.76 152.851 182.554 152.554 183.297C152.265 184.032 151.844 184.677 151.291 185.232C150.738 185.779 150.054 186.21 149.238 186.526C148.43 186.842 147.512 187 146.483 187C145.897 187 145.31 186.94 144.723 186.821C144.145 186.701 143.584 186.535 143.04 186.321C142.504 186.107 141.999 185.851 141.522 185.552C141.046 185.253 140.63 184.92 140.273 184.553L141.395 182.734C141.488 182.597 141.612 182.486 141.765 182.401C141.918 182.307 142.079 182.26 142.249 182.26C142.479 182.26 142.721 182.345 142.976 182.516C143.231 182.687 143.525 182.875 143.856 183.08C144.188 183.285 144.57 183.472 145.004 183.643C145.446 183.814 145.973 183.9 146.585 183.9C147.478 183.9 148.167 183.695 148.651 183.285C149.144 182.875 149.391 182.264 149.391 181.452C149.391 180.983 149.268 180.603 149.021 180.312C148.783 180.022 148.468 179.778 148.077 179.582C147.686 179.385 147.24 179.219 146.738 179.082C146.237 178.937 145.722 178.779 145.195 178.608C144.668 178.437 144.154 178.232 143.652 177.993C143.151 177.754 142.704 177.438 142.313 177.045C141.922 176.652 141.603 176.165 141.357 175.585C141.119 175.004 141 174.282 141 173.419C141 172.728 141.136 172.057 141.408 171.408C141.68 170.759 142.079 170.182 142.606 169.678C143.134 169.174 143.78 168.769 144.545 168.461C145.319 168.154 146.203 168 147.197 168C148.311 168 149.34 168.175 150.284 168.525C151.236 168.867 152.039 169.345 152.694 169.96L151.75 171.767Z" fill="white"/>
</svg>
