<svg width="73" height="60" viewBox="0 0 73 60" fill="none" xmlns="http://www.w3.org/2000/svg">
<path d="M46.5918 6.01367C47.8278 6.01367 49.8498 6.01453 53.5587 6.01367" stroke="black" stroke-width="3" stroke-miterlimit="3"/>
<path d="M32.8911 6.01367C33.972 6.01367 36.7543 6.01453 39.996 6.01367" stroke="black" stroke-width="3" stroke-miterlimit="3"/>
<path d="M19.2939 6.01367C20.4117 6.01367 22.882 6.01453 26.2351 6.01367" stroke="black" stroke-width="3" stroke-miterlimit="3"/>
<path d="M60.9204 5.85742C62.5542 5.85828 63.5339 5.86853 65.6013 5.86768C67.499 5.86768 69.0393 7.40711 69.0393 9.30483L68.7719 52.978C68.7607 54.9006 67.1896 56.4648 65.2662 56.4682L8.02101 56.5728C6.1233 56.5728 4.58301 55.0325 4.58301 53.1348V9.30483C4.58301 7.40711 6.1233 5.86768 8.02101 5.86768C9.05472 5.86768 9.29472 5.86766 12.3024 5.86851" stroke="black" stroke-width="3" stroke-miterlimit="3"/>
<path d="M4.94385 17.1836H68.6758" stroke="black" stroke-width="3" stroke-miterlimit="3" stroke-linecap="square"/>
<path d="M15.8218 1.71484V10.3814" stroke="black" stroke-width="3" stroke-miterlimit="3" stroke-linecap="round"/>
<path d="M29.5728 1.71484V10.3814" stroke="black" stroke-width="3" stroke-miterlimit="3" stroke-linecap="round"/>
<path d="M43.3232 1.71484V10.3814" stroke="black" stroke-width="3" stroke-miterlimit="3" stroke-linecap="round"/>
<path d="M57.0742 1.71484V10.3814" stroke="black" stroke-width="3" stroke-miterlimit="3" stroke-linecap="round"/>
<path d="M33.4046 37.5081V34.2578H35.6186C36.6735 34.2578 37.4549 33.9941 37.9629 33.4667C38.4709 32.9398 38.7249 32.24 38.7249 31.3674C38.7249 30.5234 38.4735 29.8666 37.9706 29.3969C37.4672 28.9272 36.7744 28.6923 35.8921 28.6923C35.0966 28.6923 34.4304 28.9104 33.8932 29.3464C33.3561 29.7829 33.0875 30.3511 33.0875 31.0511H28.9321C28.9321 29.958 29.2266 28.9778 29.8158 28.1104C30.4055 27.2424 31.2301 26.5638 32.2895 26.0746C33.3489 25.5861 34.5164 25.3418 35.7918 25.3418C38.0067 25.3418 39.7421 25.8715 40.9981 26.9309C42.2535 27.9904 42.8812 29.45 42.8812 31.31C42.8812 32.2683 42.5889 33.1503 42.0044 33.956C41.4192 34.7612 40.6521 35.3795 39.7029 35.8109C40.8824 36.2326 41.7621 36.8655 42.3421 37.7095C42.9221 38.5529 43.2121 39.55 43.2121 40.7009C43.2121 42.5609 42.5338 44.0518 41.1772 45.1735C39.8206 46.2952 38.0255 46.8561 35.7918 46.8561C33.7015 46.8561 31.9924 46.3046 30.6644 45.2017C29.3364 44.0994 28.6724 42.6423 28.6724 40.8303H32.8286C32.8286 41.6166 33.1235 42.2589 33.7132 42.7572C34.3029 43.2555 35.0292 43.5046 35.8921 43.5046C36.8795 43.5046 37.6538 43.2435 38.2149 42.7212C38.7755 42.1989 39.0558 41.5063 39.0558 40.6434C39.0558 38.5532 37.9055 37.5081 35.6049 37.5081H33.4046Z" fill="#2E7814"/>
</svg>
