<svg width="51" height="60" viewBox="0 0 51 60" fill="none" xmlns="http://www.w3.org/2000/svg">
<path d="M22.7206 44.297V52.7939L19.2144 56.3011H29.5154L25.8234 52.5581V44.1621" stroke="black" stroke-width="3" stroke-miterlimit="3" stroke-linecap="square"/>
<path fill-rule="evenodd" clip-rule="evenodd" d="M42.3158 26.5082C43.0786 25.2195 43.515 23.7153 43.515 22.1101C43.515 17.7646 40.321 14.159 36.1564 13.5105C36.2073 13.1472 36.2311 12.7756 36.2311 12.3992C36.2311 7.59754 32.3328 3.69922 27.5312 3.69922C23.0016 3.69922 19.2758 7.1685 18.8755 11.5945C18.2764 11.4564 17.6517 11.3874 17.0106 11.3874C12.2098 11.3874 8.31143 15.2858 8.31143 20.0866C8.31143 21.4798 8.63937 22.7973 9.22376 23.9636C6.2928 25.365 4.26514 28.3585 4.26514 31.8212C4.26514 36.6229 8.16267 40.5212 12.9643 40.5212C13.9054 40.5212 14.8112 40.3715 15.6569 40.0887C17.881 42.4082 21.0109 43.8482 24.4744 43.8482C27.5402 43.8482 30.3446 42.7197 32.4906 40.8507C33.9347 41.9151 35.7183 42.5447 37.6473 42.5447C42.449 42.5447 46.3473 38.6463 46.3473 33.8447C46.3473 30.7617 44.7397 28.051 42.3158 26.5082Z" stroke="black" stroke-width="3" stroke-miterlimit="3"/>
</svg>
