<svg width="73" height="60" viewBox="0 0 73 60" fill="none" xmlns="http://www.w3.org/2000/svg">
<path d="M46.4658 6.70898C47.7018 6.70898 49.7238 6.70984 53.4327 6.70898" stroke="black" stroke-width="3" stroke-miterlimit="3"/>
<path d="M32.7651 6.70898C33.846 6.70898 36.6283 6.70984 39.87 6.70898" stroke="black" stroke-width="3" stroke-miterlimit="3"/>
<path d="M19.168 6.70898C20.2857 6.70898 22.756 6.70984 26.1091 6.70898" stroke="black" stroke-width="3" stroke-miterlimit="3"/>
<path d="M60.7945 6.55273C62.4273 6.55273 63.4079 6.56385 65.4753 6.56299C67.3722 6.56299 68.9133 8.10243 68.9133 10.0001L68.6459 53.6725C68.6339 55.5959 67.0636 57.1602 65.1402 57.1636L7.89503 57.2673C5.99732 57.2673 4.45703 55.727 4.45703 53.8301V10.0001C4.45703 8.10243 5.99732 6.56215 7.89503 6.56215C8.92789 6.56215 9.16876 6.56213 12.1765 6.56299" stroke="black" stroke-width="3" stroke-miterlimit="3"/>
<path d="M4.81787 17.8809H68.5499" stroke="black" stroke-width="3" stroke-miterlimit="3" stroke-linecap="square"/>
<path d="M15.6958 2.41016V11.0775" stroke="black" stroke-width="3" stroke-miterlimit="3" stroke-linecap="round"/>
<path d="M29.4468 2.41016V11.0775" stroke="black" stroke-width="3" stroke-miterlimit="3" stroke-linecap="round"/>
<path d="M43.1973 2.41016V11.0775" stroke="black" stroke-width="3" stroke-miterlimit="3" stroke-linecap="round"/>
<path d="M56.9478 2.41016V11.0775" stroke="black" stroke-width="3" stroke-miterlimit="3" stroke-linecap="round"/>
<path d="M40.582 38.3633H52.4226" stroke="#2E7814" stroke-width="3" stroke-miterlimit="3" stroke-linecap="round"/>
<path d="M46.3457 32.4434V36.6725V44.2848" stroke="#2E7814" stroke-width="3" stroke-miterlimit="3" stroke-linecap="round"/>
<path d="M25.6791 39.2229V35.9726H27.8931C28.9479 35.9726 29.7293 35.7089 30.2373 35.1815C30.7453 34.6546 30.9993 33.9548 30.9993 33.0823C30.9993 32.2383 30.7479 31.5815 30.2451 31.1117C29.7416 30.642 29.0488 30.4072 28.1665 30.4072C27.3711 30.4072 26.7048 30.6252 26.1676 31.0612C25.6305 31.4978 25.3619 32.066 25.3619 32.766H21.2065C21.2065 31.6728 21.5011 30.6926 22.0902 29.8252C22.6799 28.9572 23.5045 28.2786 24.5639 27.7895C25.6233 27.3009 26.7908 27.0566 28.0662 27.0566C30.2805 27.0566 32.0156 27.5864 33.2716 28.6458C34.5276 29.7052 35.1556 31.1648 35.1556 33.0248C35.1556 33.9831 34.8634 34.8652 34.2788 35.6709C33.6936 36.476 32.9265 37.0943 31.9773 37.5258C33.1568 37.9475 34.0365 38.5803 34.6165 39.4243C35.1965 40.2677 35.4865 41.2649 35.4865 42.4157C35.4865 44.2757 34.8082 45.7666 33.4516 46.8883C32.0951 48.01 30.2999 48.5709 28.0662 48.5709C25.9759 48.5709 24.2668 48.0194 22.9388 46.9166C21.6108 45.8143 20.9468 44.3572 20.9468 42.5452H25.1031C25.1031 43.3315 25.3979 43.9738 25.9876 44.4721C26.5774 44.9704 27.3036 45.2195 28.1665 45.2195C29.1539 45.2195 29.9282 44.9584 30.4893 44.4361C31.0499 43.9138 31.3302 43.2212 31.3302 42.3583C31.3302 40.268 30.1796 39.2229 27.8785 39.2229H25.6791Z" fill="#2E7814"/>
</svg>
