<svg width="61" height="60" viewBox="0 0 61 60" fill="none" xmlns="http://www.w3.org/2000/svg">
<path d="M30.5063 58.2343C46.1002 58.2343 58.7416 45.5929 58.7416 29.999C58.7416 14.405 46.1002 1.76367 30.5063 1.76367C14.9124 1.76367 2.271 14.405 2.271 29.999C2.271 45.5929 14.9124 58.2343 30.5063 58.2343Z" stroke="black" stroke-width="3" stroke-miterlimit="3" stroke-linecap="square"/>
<path fill-rule="evenodd" clip-rule="evenodd" d="M22.3174 19.9501L20.8262 17.5872C21.3462 17.1284 21.9159 16.6925 22.5353 16.2795C23.1547 15.8666 23.8238 15.5072 24.5426 15.2013C25.2615 14.8954 26.0415 14.6545 26.8826 14.4787C27.7238 14.3028 28.6338 14.2148 29.6126 14.2148C30.9432 14.2148 32.1553 14.3984 33.2488 14.7654C34.3423 15.1325 35.2791 15.6563 36.0591 16.3369C36.8391 17.0175 37.4432 17.8395 37.8715 18.8031C38.2997 19.7666 38.5138 20.8448 38.5138 22.0378C38.5138 23.2001 38.3456 24.2057 38.0091 25.0545C37.6726 25.9034 37.2482 26.6413 36.7359 27.2684C36.2235 27.8954 35.6691 28.4384 35.0726 28.8972C34.4762 29.356 33.9103 29.7881 33.375 30.1934C32.8397 30.5987 32.3771 30.9963 31.9871 31.3863C31.5971 31.7763 31.3638 32.216 31.2874 32.7054L30.7597 36.0548H26.8826L26.4926 32.3154C26.4773 32.239 26.4697 32.174 26.4697 32.1204C26.4697 32.0669 26.4697 32.0019 26.4697 31.9254C26.4697 31.2525 26.6379 30.6675 26.9744 30.1704C27.3109 29.6734 27.7315 29.2069 28.2362 28.771C28.7409 28.3351 29.2838 27.9107 29.865 27.4978C30.4462 27.0848 30.9891 26.6375 31.4938 26.1557C31.9985 25.674 32.4191 25.1272 32.7556 24.5154C33.0921 23.9037 33.2603 23.1848 33.2603 22.359C33.2603 21.8084 33.1571 21.3151 32.9506 20.8793C32.7441 20.4434 32.4574 20.0687 32.0903 19.7551C31.7232 19.4416 31.2835 19.2007 30.7712 19.0325C30.2588 18.8643 29.7044 18.7801 29.1079 18.7801C28.2362 18.7801 27.4982 18.8757 26.8941 19.0669C26.29 19.2581 25.7776 19.4722 25.357 19.7093C24.9365 19.9463 24.5809 20.1604 24.2903 20.3516C23.9997 20.5428 23.7397 20.6384 23.5103 20.6384C22.9597 20.6384 22.5621 20.409 22.3174 19.9501ZM25.1621 44.6348C25.1621 44.1607 25.25 43.7096 25.4259 43.2813C25.6018 42.8531 25.8465 42.486 26.16 42.1801C26.4735 41.8743 26.8444 41.6295 27.2726 41.446C27.7009 41.2625 28.1597 41.1707 28.6491 41.1707C29.1232 41.1707 29.5744 41.2625 30.0026 41.446C30.4309 41.6295 30.7979 41.8743 31.1038 42.1801C31.4097 42.486 31.6544 42.8531 31.8379 43.2813C32.0215 43.7096 32.1132 44.1607 32.1132 44.6348C32.1132 45.1243 32.0215 45.5793 31.8379 45.9998C31.6544 46.4204 31.4097 46.7837 31.1038 47.0896C30.7979 47.3954 30.4309 47.6363 30.0026 47.8122C29.5744 47.9881 29.1232 48.076 28.6491 48.076C28.1597 48.076 27.7009 47.9881 27.2726 47.8122C26.8444 47.6363 26.4735 47.3954 26.16 47.0896C25.8465 46.7837 25.6018 46.4204 25.4259 45.9998C25.25 45.5793 25.1621 45.1243 25.1621 44.6348Z" fill="#2E7814"/>
</svg>
